<?xml version="1.0" encoding="UTF-8"?>
<svg width="512" height="512" viewBox="0 0 512 512" xmlns="http://www.w3.org/2000/svg" role="img" aria-labelledby="title desc">
  <title>Axolotl Meme Logo — $AXO</title>
  <desc>Cartoon axolotl head with feathery gills, tired eyes (not red), and tongue out in neon style.</desc>

  <defs>
    <!-- Colors -->
    <linearGradient id="skinGrad" x1="0" y1="0" x2="1" y2="1">
      <stop offset="0%"  stop-color="#FFC6E4"/>
      <stop offset="70%" stop-color="#FF9FD2"/>
      <stop offset="100%" stop-color="#F97FC5"/>
    </linearGradient>

    <linearGradient id="tongueGrad" x1="0" y1="0" x2="0" y2="1">
      <stop offset="0%" stop-color="#FF7BAE"/>
      <stop offset="100%" stop-color="#E24A86"/>
    </linearGradient>

    <linearGradient id="gillGrad" x1="0" y1="0" x2="1" y2="1">
      <stop offset="0%"  stop-color="#00E5FF"/>
      <stop offset="100%" stop-color="#6AF7FF"/>
    </linearGradient>

    <!-- Soft inner shadow -->
    <filter id="softShade" x="-20%" y="-20%" width="140%" height="140%">
      <feGaussianBlur in="SourceAlpha" stdDeviation="6" result="blur"/>
      <feOffset dy="2" result="offset"/>
      <feComposite in="offset" in2="SourceAlpha" operator="arithmetic" k2="-1" k3="1" result="inner"/>
      <feColorMatrix type="matrix" values="0 0 0 0 0.20  0 0 0 0 0.10  0 0 0 0 0.20  0 0 0 0.6 0" result="shade"/>
      <feComposite in="SourceGraphic" in2="shade" operator="over"/>
    </filter>

    <!-- Neon glow for gills -->
    <filter id="neonGlow" x="-50%" y="-50%" width="200%" height="200%">
      <feGaussianBlur stdDeviation="6" result="blur"/>
      <feColorMatrix type="matrix" values="0 0 0 0 0  0 0 0 0 0.9  0 0 0 0 1  0 0 0 1 0" result="blueish"/>
      <feMerge>
        <feMergeNode in="blueish"/>
        <feMergeNode in="SourceGraphic"/>
      </feMerge>
    </filter>

    <!-- Subtle shadow under eyes -->
    <linearGradient id="bagGrad" x1="0" y1="0" x2="0" y2="1">
      <stop offset="0%"  stop-color="rgba(0,0,0,0.18)"/>
      <stop offset="100%" stop-color="rgba(0,0,0,0.04)"/>
    </linearGradient>
  </defs>

  <!-- Background transparent: keep empty for logo flexibility -->

  <!-- GILLS (left) -->
  <g filter="url(#neonGlow)">
    <path d="M110,210 C60,200 60,270 110,280
             M120,240 C70,235 70,300 125,305
             M135,270 C90,270 95,330 145,335"
          fill="none" stroke="url(#gillGrad)" stroke-width="16" stroke-linecap="round"/>
    <path d="M150,210 C105,190 95,235 135,245" fill="none" stroke="url(#gillGrad)" stroke-width="10" stroke-linecap="round"/>
  </g>

  <!-- GILLS (right) -->
  <g filter="url(#neonGlow)">
    <path d="M402,210 C452,200 452,270 402,280
             M392,240 C442,235 442,300 387,305
             M377,270 C422,270 417,330 367,335"
          fill="none" stroke="url(#gillGrad)" stroke-width="16" stroke-linecap="round"/>
    <path d="M362,210 C407,190 417,235 377,245" fill="none" stroke="url(#gillGrad)" stroke-width="10" stroke-linecap="round"/>
  </g>

  <!-- HEAD -->
  <g filter="url(#softShade)">
    <ellipse cx="256" cy="280" rx="170" ry="150" fill="url(#skinGrad)" stroke="#C94AA4" stroke-width="4"/>
  </g>

  <!-- EYES (tired, not red) -->
  <g>
    <!-- left eye -->
    <ellipse cx="205" cy="280" rx="32" ry="26" fill="#1E2230"/>
    <path d="M173,296 q32,16 64,0" fill="url(#bagGrad)"/>
    <!-- right eye -->
    <ellipse cx="307" cy="280" rx="32" ry="26" fill="#1E2230"/>
    <path d="M275,296 q32,16 64,0" fill="url(#bagGrad)"/>
  </g>

  <!-- MOUTH + TONGUE -->
  <g>
    <!-- gentle smile arc -->
    <path d="M200,322 Q256,350 312,322" fill="none" stroke="#392044" stroke-width="6" stroke-linecap="round"/>
    <!-- tongue -->
    <path d="M238,330
             q14,22 0,46
             q-4,16 18,16
             q22,0 18,-16
             q-14,-24 0,-46
             q-16,12 -36,0 z"
          fill="url(#tongueGrad)" stroke="#C94186" stroke-width="3"/>
    <!-- tongue highlight -->
    <path d="M247,354 q12,8 0,18" fill="none" stroke="rgba(255,255,255,0.45)" stroke-width="3" stroke-linecap="round"/>
  </g>

  <!-- CHEEKS (soft blush) -->
  <ellipse cx="168" cy="315" rx="26" ry="16" fill="#FFABD6" opacity="0.35"/>
  <ellipse cx="344" cy="315" rx="26" ry="16" fill="#FFABD6" opacity="0.35"/>

  <!-- Tiny sparkles for fun -->
  <g opacity="0.6">
    <circle cx="140" cy="180" r="4" fill="#9FF7FF"/>
    <circle cx="372" cy="168" r="3" fill="#FFB8F0"/>
    <circle cx="420" cy="236" r="5" fill="#7DF1FF"/>
    <circle cx="92"  cy="252" r="3" fill="#FF9BE7"/>
  </g>
</svg>
